<svg width="25" height="25" viewBox="0 0 25 25" fill="none" xmlns="http://www.w3.org/2000/svg">
<path d="M20.6501 4.13544C20.4077 3.97437 20.1289 3.87631 19.8391 3.85012C19.5492 3.82393 19.2574 3.87044 18.9901 3.98544L15.4201 5.51544L10.6701 3.51544C10.4836 3.43566 10.2829 3.39453 10.0801 3.39453C9.87724 3.39453 9.67653 3.43566 9.49006 3.51544L5.13006 5.35544C4.79018 5.50326 4.50157 5.74825 4.30052 6.05962C4.09946 6.37099 3.99493 6.73484 4.00006 7.10544V18.3554C3.99822 18.6717 4.07492 18.9834 4.22327 19.2626C4.37163 19.5419 4.587 19.7799 4.85006 19.9554C5.09246 20.1165 5.3712 20.2146 5.66105 20.2408C5.9509 20.2669 6.24271 20.2204 6.51006 20.1054L10.0801 18.5754L14.8301 20.5754C15.0162 20.6563 15.2172 20.6972 15.4201 20.6954C15.6228 20.6957 15.8235 20.6549 16.0101 20.5754L20.3701 18.7054C20.7099 18.5576 20.9985 18.3126 21.1996 18.0013C21.4007 17.6899 21.5052 17.326 21.5001 16.9554V5.73544C21.5019 5.41922 21.4252 5.1075 21.2768 4.82824C21.1285 4.54898 20.9131 4.31093 20.6501 4.13544ZM10.8301 5.13544L14.6701 6.77544V18.9054L10.8301 17.2654V5.13544ZM5.92006 18.7254C5.88205 18.7474 5.83894 18.7589 5.79506 18.7589C5.75117 18.7589 5.70806 18.7474 5.67006 18.7254C5.61427 18.6864 5.56938 18.6337 5.53963 18.5725C5.50988 18.5113 5.49626 18.4434 5.50006 18.3754V7.10544C5.49883 7.02559 5.52215 6.94729 5.56686 6.88112C5.61157 6.81495 5.67552 6.7641 5.75006 6.73544L9.33006 5.18544V17.2654L5.92006 18.7254ZM20.0001 16.9854C20.0037 17.0619 19.9848 17.1377 19.9457 17.2035C19.9066 17.2693 19.849 17.3222 19.7801 17.3554L16.1701 18.9054V6.82544L19.5801 5.36544C19.6181 5.3435 19.6612 5.33194 19.7051 5.33194C19.7489 5.33194 19.7921 5.3435 19.8301 5.36544C19.8858 5.40448 19.9307 5.45712 19.9605 5.51837C19.9902 5.57962 20.0039 5.64745 20.0001 5.71544V16.9854Z" fill="#787878"/>
</svg>
