<svg width="25" height="25" viewBox="0 0 25 25" fill="none" xmlns="http://www.w3.org/2000/svg">
<path d="M9.75 21.0455H7.75C6.68913 21.0455 5.67172 20.624 4.92157 19.8739C4.17143 19.1238 3.75 18.1063 3.75 17.0455V10.7535C3.74999 10.0657 3.92732 9.38952 4.26487 8.79026C4.60242 8.19101 5.08879 7.68892 5.677 7.33247L10.677 4.30247C11.3021 3.92367 12.0191 3.72339 12.75 3.72339C13.4809 3.72339 14.1979 3.92367 14.823 4.30247L19.823 7.33247C20.4111 7.68883 20.8973 8.19076 21.2349 8.78983C21.5724 9.38889 21.7498 10.0649 21.75 10.7525V17.0455C21.75 18.1063 21.3286 19.1238 20.5784 19.8739C19.8283 20.624 18.8109 21.0455 17.75 21.0455H15.75M9.75 21.0455V17.0455C9.75 16.2498 10.0661 15.4868 10.6287 14.9242C11.1913 14.3615 11.9544 14.0455 12.75 14.0455C13.5456 14.0455 14.3087 14.3615 14.8713 14.9242C15.4339 15.4868 15.75 16.2498 15.75 17.0455V21.0455M9.75 21.0455H15.75" stroke="#808080" stroke-width="2" stroke-linecap="round" stroke-linejoin="round"/>
</svg>
